<svg width="32" height="32" viewBox="0 0 32 32" fill="none" xmlns="http://www.w3.org/2000/svg">
<path d="M3.00893 26.5002C2.73283 26.9785 2.89676 27.5901 3.37508 27.8662C3.8534 28.1423 4.46497 27.9784 4.74107 27.5001L3.00893 26.5002ZM27.2589 27.5001C27.535 27.9784 28.1466 28.1423 28.6249 27.8662C29.1032 27.5901 29.2672 26.9785 28.9911 26.5002L27.2589 27.5001ZM23 12C23 15.866 19.866 19 16 19V21C20.9706 21 25 16.9706 25 12H23ZM16 19C12.134 19 9 15.866 9 12H7C7 16.9706 11.0294 21 16 21V19ZM9 12C9 8.13401 12.134 5 16 5V3C11.0294 3 7 7.02944 7 12H9ZM16 5C19.866 5 23 8.13401 23 12H25C25 7.02944 20.9706 3 16 3V5ZM4.74107 27.5001C5.88198 25.5235 7.52311 23.8822 9.49948 22.741L8.4994 21.009C6.21897 22.3257 4.32536 24.2196 3.00893 26.5002L4.74107 27.5001ZM9.49948 22.741C11.4756 21.5999 13.7176 21 16 21V19C13.367 19 10.7801 19.6921 8.4994 21.009L9.49948 22.741ZM16 21C18.2824 21 20.5244 21.5999 22.5005 22.741L23.5006 21.009C21.2199 19.6921 18.633 19 16 19V21ZM22.5005 22.741C24.4769 23.8822 26.118 25.5235 27.2589 27.5001L28.9911 26.5002C27.6746 24.2196 25.781 22.3257 23.5006 21.009L22.5005 22.741Z" fill="white"/>
</svg>
