<svg width="32" height="32" viewBox="0 0 32 32" fill="none" xmlns="http://www.w3.org/2000/svg">
<g id="States=Default">
<path id="Vector" d="M4.6875 12H27.3125M4.6875 20H27.3125M28 16C28 22.6274 22.6274 28 16 28C9.37258 28 4 22.6274 4 16C4 9.37258 9.37258 4 16 4C22.6274 4 28 9.37258 28 16ZM21 16.0002C21 22.4481 18.7614 27.6752 16 27.6752C13.2386 27.6752 11 22.4481 11 16.0002C11 9.55227 13.2386 4.3252 16 4.3252C18.7614 4.3252 21 9.55227 21 16.0002Z" stroke="white" stroke-width="2" stroke-miterlimit="10" stroke-linecap="round"/>
</g>
</svg>
