<svg width="94" height="94" viewBox="0 0 94 94" fill="none" xmlns="http://www.w3.org/2000/svg">
<path id="Star 6" d="M47 0L47.96 40.0157L59.6805 1.74289L49.8087 40.5337L71.4204 6.84229L51.4492 41.5312L81.3493 14.92L52.7596 42.9344L88.7306 25.3769L53.6429 44.6391L93.017 37.4376L54.0336 46.5189L93.8904 50.2074L53.9025 48.4344L91.2863 62.7393L53.2596 50.2435L85.3976 74.104L52.1524 51.812L76.6611 83.4584L50.6631 53.0237L65.7249 90.1089L48.9021 53.7886L53.3998 93.5622L47 54.05L40.6002 93.5622L45.0979 53.7886L28.2751 90.1089L43.3369 53.0237L17.3389 83.4584L41.8476 51.812L8.60241 74.104L40.7404 50.2435L2.71374 62.7393L40.0975 48.4344L0.10957 50.2074L39.9664 46.5189L0.983047 37.4376L40.3571 44.6391L5.26939 25.3769L41.2404 42.9344L12.6507 14.92L42.5508 41.5312L22.5796 6.84229L44.1913 40.5337L34.3195 1.74289L46.04 40.0157L47 0Z" fill="white"/>
</svg>
